2.8Hzhigh3min_grf.mot
version=1
nRows=27
nColumns 19
inDegrees=yes
endheader
time	1_ground_force_vx	1_ground_force_vy	1_ground_force_vz	1_ground_force_px	1_ground_force_py	1_ground_force_pz	1_ground_torque_x	1_ground_torque_y	1_ground_torque_z	2_ground_force_vx	2_ground_force_vy	2_ground_force_vz	2_ground_force_px	2_ground_force_py	2_ground_force_pz	2_ground_torque_x	2_ground_torque_y	2_ground_torque_z
            2.502500	           -6.183709	         1026.112753	          -47.357836	           -0.264139	            0.006280	           -0.420024	            0.011696	           -1.940841	            0.089575	           20.691057	          968.249009	           28.738783	           -0.297247	            0.005204	           -0.639791	            0.106304	            4.974565	            0.147651
            2.503000	           -9.664490	         1033.675238	          -45.436628	           -0.264412	            0.006280	           -0.420036	            0.020566	           -2.199630	            0.096688	           21.126831	          977.096515	           26.892999	           -0.297310	            0.005204	           -0.639921	            0.113384	            5.243893	            0.144330
            2.503500	           -8.288958	         1042.325110	          -44.669245	           -0.264787	            0.006280	           -0.419876	            0.021739	           -2.733645	            0.117151	           23.439041	          985.573468	           27.579221	           -0.297404	            0.005205	           -0.640129	            0.106238	            4.467147	            0.125004
            2.504000	           -3.162355	         1052.070808	          -47.070615	           -0.264692	            0.006279	           -0.419745	            0.009680	           -3.220485	            0.144087	           25.334661	          992.935229	           30.701941	           -0.297535	            0.005205	           -0.640353	            0.091217	            3.575058	            0.110542
            2.504500	            2.648270	         1059.840627	          -51.087148	           -0.264479	            0.006281	           -0.420137	           -0.007556	           -3.023980	            0.145764	           26.013962	          999.920628	           34.856283	           -0.297434	            0.005206	           -0.640536	            0.078992	            3.036297	            0.105842
            2.505000	            4.744506	         1068.693079	          -55.456673	           -0.264605	            0.006280	           -0.419845	           -0.010424	           -2.348007	            0.121843	           25.002668	         1007.826347	           37.466001	           -0.297445	            0.005207	           -0.640818	            0.083558	            3.368109	            0.125210
            2.505500	            2.170060	         1077.174748	          -57.706769	           -0.264740	            0.006278	           -0.419381	           -0.003283	           -1.629394	            0.087290	           23.195534	         1015.366646	           38.432259	           -0.297331	            0.005208	           -0.640973	            0.100845	            4.414434	            0.167089
            2.506000	           -3.653558	         1083.844073	          -57.801283	           -0.264578	            0.006278	           -0.419424	            0.005062	           -1.501745	            0.080088	           21.906062	         1021.996241	           37.095536	           -0.297432	            0.005207	           -0.640936	            0.115633	            5.394672	            0.195811
            2.506500	           -9.382611	         1090.328327	          -56.750404	           -0.264576	            0.006279	           -0.419649	            0.020528	           -2.385510	            0.124163	           22.539391	         1028.080624	           35.662169	           -0.297503	            0.005207	           -0.640769	            0.123445	            5.630636	            0.195316
            2.507000	          -11.215957	         1098.256395	          -55.978149	           -0.264843	            0.006277	           -0.419338	            0.037488	           -3.670744	            0.187098	           24.480899	         1035.271697	           35.076892	           -0.297502	            0.005207	           -0.640808	            0.118660	            5.018013	            0.170019
            2.507500	           -8.836496	         1106.013361	          -57.143081	           -0.265018	            0.006276	           -0.419133	            0.036064	           -4.513977	            0.233218	           26.800270	         1041.902936	           36.929746	           -0.297608	            0.005207	           -0.640969	            0.104695	            4.070171	            0.144265
            2.508000	           -3.527720	         1113.598780	          -60.196157	           -0.264828	            0.006277	           -0.419234	            0.013229	           -4.175977	            0.225735	           27.716069	         1048.156088	           40.142799	           -0.297753	            0.005208	           -0.641413	            0.096065	            3.632932	            0.139136
            2.508500	            0.588458	         1119.923590	          -63.618541	           -0.264835	            0.006278	           -0.419391	           -0.001499	           -2.853313	            0.162086	           27.225973	         1054.586069	           43.967172	           -0.297699	            0.005208	           -0.641423	            0.102682	            3.977331	            0.165821
            2.509000	            1.360995	         1125.341677	          -65.935942	           -0.264937	            0.006278	           -0.419440	           -0.001868	           -1.544200	            0.090478	           25.891278	         1061.202274	           46.337789	           -0.297632	            0.005210	           -0.641738	            0.118420	            4.853644	            0.211936
            2.509500	           -2.353519	         1131.470250	          -65.946297	           -0.265071	            0.006277	           -0.419293	            0.002536	           -1.219274	            0.071064	           24.798467	         1065.433512	           46.400287	           -0.297760	            0.005208	           -0.641478	            0.134572	            5.781691	            0.251796
            2.510000	           -7.486044	         1137.953636	          -64.667613	           -0.264862	            0.006277	           -0.419239	            0.015565	           -2.366102	            0.134461	           25.294088	         1070.779319	           45.386704	           -0.297889	            0.005208	           -0.641484	            0.139286	            5.896418	            0.249929
            2.510500	          -11.289853	         1144.077819	          -63.714772	           -0.265010	            0.006276	           -0.419024	            0.041175	           -4.172542	            0.232373	           27.187877	         1078.156220	           44.332824	           -0.297801	            0.005209	           -0.641756	            0.135993	            5.392891	            0.221751
            2.511000	          -11.107780	         1150.567737	          -63.733267	           -0.265209	            0.006275	           -0.418793	            0.051336	           -5.317461	            0.294550	           29.463746	         1083.687513	           44.726984	           -0.297792	            0.005210	           -0.641981	            0.128026	            4.708858	            0.194348
            2.511500	           -7.859674	         1156.346698	          -66.009398	           -0.265103	            0.006275	           -0.418774	            0.034335	           -5.051549	            0.288365	           31.556968	         1088.107214	           46.853621	           -0.297885	            0.005210	           -0.642071	            0.127386	            4.392358	            0.189134
            2.512000	           -2.504073	         1161.047089	          -68.891539	           -0.265023	            0.006276	           -0.419131	            0.007341	           -3.403914	            0.201974	           32.902599	         1092.150282	           50.527891	           -0.298042	            0.005210	           -0.642168	            0.138489	            4.596937	            0.212675
            2.512500	            0.653049	         1166.103864	          -70.941260	           -0.265068	            0.006276	           -0.419098	           -0.000971	           -1.734156	            0.105499	           33.214603	         1096.928367	           53.595161	           -0.298162	            0.005210	           -0.642463	            0.164852	            5.444306	            0.266005
            2.513000	            0.607033	         1170.789644	          -70.645921	           -0.265153	            0.006276	           -0.418975	           -0.000612	           -1.180092	            0.071207	           33.390883	         1100.236836	           55.530961	           -0.298204	            0.005210	           -0.642404	            0.184827	            6.090097	            0.307378
            2.513500	           -2.873854	         1174.567896	          -69.061933	           -0.265203	            0.006276	           -0.419104	            0.005597	           -2.287695	            0.134511	           34.643720	         1103.557474	           55.213754	           -0.298349	            0.005210	           -0.642511	            0.193665	            6.169095	            0.308655
            2.514000	           -6.858776	         1181.409099	          -67.142573	           -0.265199	            0.006275	           -0.418736	            0.025039	           -4.312891	            0.245113	           37.576077	         1108.728757	           53.916909	           -0.298352	            0.005211	           -0.642743	            0.190667	            5.625864	            0.273583
            2.514500	           -8.646400	         1185.012616	          -66.755829	           -0.265248	            0.006275	           -0.418718	            0.040950	           -5.612323	            0.316161	           40.983102	         1112.243264	           53.036305	           -0.298404	            0.005210	           -0.642658	            0.185877	            5.044524	            0.240544
            2.515000	           -7.230236	         1189.166123	          -68.438243	           -0.265444	            0.006274	           -0.418609	            0.032794	           -5.393666	            0.310413	           43.688163	         1115.748629	           53.939267	           -0.298564	            0.005210	           -0.642782	            0.190358	            4.861541	            0.235024
            2.515500	           -3.112264	         1193.145090	          -71.320405	           -0.265207	            0.006274	           -0.418644	            0.009823	           -3.765773	            0.225100	           45.410689	         1119.061007	           56.343690	           -0.298576	            0.005210	           -0.642958	            0.211110	            5.202410	            0.261937
